<?xml version="1.0" encoding="UTF-8" standalone="no"?>
<!-- Generator: Adobe Illustrator 16.0.0, SVG Export Plug-In . SVG Version: 6.00 Build 0)  -->

<svg
   xmlns:dc="http://purl.org/dc/elements/1.1/"
   xmlns:cc="http://creativecommons.org/ns#"
   xmlns:rdf="http://www.w3.org/1999/02/22-rdf-syntax-ns#"
   xmlns:svg="http://www.w3.org/2000/svg"
   xmlns="http://www.w3.org/2000/svg"
   xmlns:sodipodi="http://sodipodi.sourceforge.net/DTD/sodipodi-0.dtd"
   xmlns:inkscape="http://www.inkscape.org/namespaces/inkscape"
   version="1.1"
   id="Social_Media_Icons"
   x="0px"
   y="0px"
   width="755px"
   height="66px"
   viewBox="-633.832 400.5 755 66"
   enable-background="new -633.832 400.5 755 66"
   xml:space="preserve"
   inkscape:version="0.48.4 r9939"
   sodipodi:docname="logo2.svg"><metadata
     id="metadata398"><rdf:RDF><cc:Work
         rdf:about=""><dc:format>image/svg+xml</dc:format><dc:type
           rdf:resource="http://purl.org/dc/dcmitype/StillImage" /><dc:title></dc:title></cc:Work></rdf:RDF></metadata><defs
     id="defs396" /><sodipodi:namedview
     pagecolor="#ffffff"
     bordercolor="#666666"
     borderopacity="1"
     objecttolerance="10"
     gridtolerance="10"
     guidetolerance="10"
     inkscape:pageopacity="0"
     inkscape:pageshadow="2"
     inkscape:window-width="1317"
     inkscape:window-height="744"
     id="namedview394"
     showgrid="false"
     showguides="true"
     inkscape:guide-bbox="true"
     inkscape:zoom="9.2307872"
     inkscape:cx="107.71145"
     inkscape:cy="-230.52229"
     inkscape:window-x="49"
     inkscape:window-y="24"
     inkscape:window-maximized="1"
     inkscape:current-layer="Social_Media_Icons" /><path
     style="fill:#3b5997"
     inkscape:connector-curvature="0"
     id="path10"
     d="m -617.332,433.5 c 9.111,0 16.5,7.387 16.5,16.5 0,9.113 -7.389,16.5 -16.5,16.5 -9.113,0 -16.5,-7.389 -16.5,-16.501 0,-9.112 7.387,-16.499 16.5,-16.499 z" /><path
     style="fill:#ffffff"
     inkscape:connector-curvature="0"
     id="path12"
     d="m -613.83,447.004 h -2.385 v -1.764 c 0,-0.662 0.389,-0.817 0.662,-0.817 0.273,0 1.684,0 1.684,0 v -2.913 l -2.318,-0.01 c -2.572,0 -3.158,2.172 -3.158,3.563 v 1.941 h -1.487 v 3.002 h 1.487 c 0,3.852 0,8.492 0,8.492 h 3.132 c 0,0 0,-4.686 0,-8.492 h 2.11 l 0.273,-3.002 z" /><path
     style="fill:#00aced"
     inkscape:connector-curvature="0"
     id="path21"
     d="m -577.332,433.5 c 9.111,0 16.5,7.387 16.5,16.5 0,9.111 -7.389,16.5 -16.5,16.5 -9.113,0 -16.5,-7.389 -16.5,-16.5 0,-9.113 7.387,-16.5 16.5,-16.5 z" /><path
     style="fill:#ffffff"
     inkscape:connector-curvature="0"
     id="path23"
     d="m -572.236,445.982 c -0.01,-0.004 -0.021,-0.018 -0.031,-0.027 -0.635,-0.573 -1.383,-0.848 -2.241,-0.814 l -0.026,-0.059 c 0.005,-0.006 0.012,-0.006 0.016,-0.006 0.779,-0.172 1.24,-0.35 1.377,-0.542 0.047,-0.155 -0.01,-0.241 -0.181,-0.263 -0.392,0.047 -0.752,0.129 -1.075,0.252 0.408,-0.252 0.567,-0.431 0.478,-0.521 -0.403,0.012 -0.837,0.21 -1.293,0.602 0.169,-0.278 0.233,-0.431 0.19,-0.457 -0.217,0.146 -0.408,0.303 -0.572,0.468 -0.344,0.37 -0.619,0.714 -0.832,1.024 l -0.01,0.026 c -0.545,0.854 -0.928,1.712 -1.156,2.587 l -0.084,0.064 -0.016,0.016 c -0.328,-0.396 -0.721,-0.729 -1.191,-0.999 -0.557,-0.349 -1.209,-0.681 -1.961,-1.002 -0.82,-0.408 -1.652,-0.746 -2.495,-1.009 -0.005,0.906 0.456,1.631 1.372,2.156 v 0.017 c -0.322,-0.006 -0.635,0.043 -0.938,0.135 0.059,0.843 0.678,1.422 1.854,1.742 l -0.006,0.017 c -0.459,-0.025 -0.842,0.131 -1.139,0.451 0.387,0.73 1.07,1.078 2.061,1.053 -0.195,0.097 -0.35,0.203 -0.449,0.321 -0.18,0.183 -0.239,0.397 -0.18,0.644 0.211,0.371 0.593,0.543 1.154,0.516 l 0,0 0.032,0.038 c -0.005,0.005 -0.011,0.011 -0.017,0.017 -0.969,0.965 -2.139,1.4 -3.512,1.309 l -0.021,0.012 c -0.837,-0.006 -1.731,-0.393 -2.701,-1.164 0.976,1.352 2.267,2.328 3.867,2.939 1.833,0.586 3.666,0.629 5.493,0.129 h 0.031 c 1.775,-0.493 3.279,-1.508 4.52,-3.043 0.572,-0.805 0.934,-1.57 1.076,-2.307 0.927,0.031 1.595,-0.226 2.007,-0.771 l -0.011,-0.018 c -0.307,0.106 -0.911,0.075 -1.807,-0.102 v -0.098 c 0,-0.004 0,-0.004 0.006,0 0.979,-0.106 1.558,-0.412 1.742,-0.918 -0.684,0.259 -1.355,0.264 -2.023,0.021 -0.121,-0.891 -0.554,-1.7 -1.308,-2.436 z" /><path
     style="fill:#30c139"
     inkscape:connector-curvature="0"
     id="path32"
     d="m -537.332,433.5 c 9.113,0 16.5,7.387 16.5,16.5 0,9.111 -7.387,16.5 -16.5,16.5 -9.113,0 -16.5,-7.389 -16.5,-16.5 0,-9.113 7.387,-16.5 16.5,-16.5 z" /><path
     style="fill:#ffffff"
     inkscape:connector-curvature="0"
     id="path34"
     d="m -538.125,452.541 2.74,-0.086 v 2.504 c 0,0.355 0.004,0.412 -0.551,0.602 -0.783,0.217 -1.666,0.26 -2.473,0.188 -2.736,-0.24 -4.824,-2.521 -5.318,-5.358 -0.469,-2.697 0.738,-5.248 2.779,-6.302 0.997,-0.514 2.192,-0.756 3.488,-0.317 0.813,0.272 1.55,0.768 2.193,1.449 l -0.448,0.856 0.842,-0.252 1.299,-1.396 c -2.204,-1.923 -5.985,-2.177 -8.491,-0.841 -2.18,1.16 -3.766,3.468 -3.843,6.041 -0.082,2.711 1.414,4.854 2.931,5.935 2.506,1.778 6.85,1.383 9.465,-0.008 v -3.101 l 0.609,-0.752 h -3.813 l -1.409,0.838 z m 8.221,-4.123 v -2.145 h -0.914 v 2.145 h -2.143 v 0.902 h 2.143 v 2.158 h 0.914 v -2.158 h 2.143 v -0.902 h -2.143 z" /><path
     style="fill:#cb2026"
     inkscape:connector-curvature="0"
     id="path43"
     d="m -497.332,433.5 c 9.113,0 16.5,7.387 16.5,16.5 0,9.113 -7.387,16.5 -16.5,16.5 -9.113,0 -16.5,-7.387 -16.5,-16.5 0,-9.111 7.387,-16.5 16.5,-16.5 z" /><path
     style="fill:#ffffff"
     inkscape:connector-curvature="0"
     id="path45"
     d="m -497.331,440.5 c -5.246,0 -9.501,4.254 -9.501,9.5 0,3.891 2.34,7.232 5.688,8.702 -0.025,-0.663 -0.004,-1.459 0.166,-2.183 0.183,-0.771 1.223,-5.177 1.223,-5.177 0,0 -0.305,-0.606 -0.305,-1.503 0,-1.406 0.816,-2.459 1.834,-2.459 0.862,0 1.281,0.648 1.281,1.426 0,0.869 -0.556,2.168 -0.841,3.373 -0.237,1.008 0.506,1.828 1.5,1.828 1.802,0 3.013,-2.313 3.013,-5.051 0,-2.082 -1.402,-3.641 -3.953,-3.641 -2.881,0 -4.676,2.148 -4.676,4.55 0,0.827 0.242,1.411 0.625,1.862 0.176,0.207 0.2,0.291 0.137,0.529 -0.045,0.176 -0.15,0.596 -0.193,0.764 -0.063,0.239 -0.258,0.326 -0.477,0.236 -1.326,-0.541 -1.944,-1.994 -1.944,-3.629 0,-2.699 2.276,-5.936 6.79,-5.936 3.627,0 6.014,2.625 6.014,5.442 0,3.728 -2.07,6.511 -5.125,6.511 -1.025,0 -1.99,-0.555 -2.322,-1.185 0,0 -0.551,2.188 -0.668,2.612 -0.201,0.732 -0.596,1.464 -0.955,2.035 0.854,0.252 1.756,0.389 2.691,0.389 5.246,0 9.5,-4.253 9.5,-9.501 -0.002,-5.24 -4.256,-9.494 -9.502,-9.494 z" /><path
     style="fill:#eb4924"
     inkscape:connector-curvature="0"
     id="path304"
     d="m -455.332,433.5 c -9.113,0 -16.5,7.387 -16.5,16.5 0,9.113 7.387,16.5 16.5,16.5 9.113,0 16.5,-7.389 16.5,-16.5 0,-9.113 -7.387,-16.5 -16.5,-16.5 l 0,0 z" /><path
     style="fill:#ffffff"
     inkscape:connector-curvature="0"
     d="m -454.415,448.339 1.185,0.551 1.766,-0.526 v -1.225 c -0.063,-2.086 -1.767,-3.758 -3.867,-3.758 -2.093,0 -3.793,1.66 -3.868,3.734 v 5.598 c 0,0.506 -0.411,0.917 -0.917,0.917 -0.506,0 -0.917,-0.411 -0.917,-0.917 V 450.34 H -464 c 0,0 0,2.376 0,2.404 0,2.141 1.735,3.875 3.875,3.875 2.122,0 3.841,-1.705 3.871,-3.819 l 0.004,-5.528 c 0,-0.507 0.411,-0.918 0.917,-0.918 0.506,0 0.917,0.411 0.917,0.918 v 1.067 z m 4.785,2.001 v 2.483 c 0,0.507 -0.411,0.917 -0.917,0.917 -0.507,0 -0.917,-0.41 -0.917,-0.917 v -2.436 l -1.766,0.527 -1.185,-0.553 v 2.416 c 0.019,2.125 1.747,3.841 3.875,3.841 2.14,0 3.875,-1.734 3.875,-3.875 0,-0.028 0,-2.404 0,-2.404 h -2.965 z"
     id="icon_1_" /><path
     d="m -414.15171,433.5 c 9.111,0 16.5,7.387 16.5,16.5 0,9.111 -7.389,16.5 -16.5,16.5 -9.113,0 -16.5,-7.389 -16.5,-16.5 0,-9.113 7.387,-16.5 16.5,-16.5 z"
     id="path4218"
     inkscape:connector-curvature="0"
     style="fill:#58cb3f;fill-opacity:1" /><path
     style="fill:#ffffff"
     d="m -413.41467,441.16519 c -3.34564,-0.27678 -6.70614,1.41207 -8.58501,4.60831 -1.35902,2.31191 -1.43831,5.81932 -0.18714,8.19902 0.76539,1.45577 0.782,1.66697 0.28071,3.08778 -0.29596,0.83883 -0.47729,1.52054 -0.40937,1.52054 0.0679,0 0.84102,-0.25155 1.71934,-0.56142 0.94136,-0.3321 1.76708,-0.42615 2.01175,-0.23392 0.22828,0.17928 0.92633,0.50703 1.5439,0.73684 1.87388,0.69732 5.52868,0.28411 7.45047,-0.84213 6.04822,-3.5445 5.74675,-12.31477 -0.53802,-15.55592 -1.05851,-0.5459 -2.17143,-0.86683 -3.28663,-0.9591 z m -4.16385,3.95331 c 0.46294,0.0313 0.9111,0.46735 1.26319,1.30998 0.4318,1.0335 0.46059,1.52883 0.12865,2.25737 -0.37809,0.8298 -0.28913,1.07884 0.83043,2.23396 1.59938,1.65013 2.47279,1.93011 3.4036,1.08774 0.68589,-0.62074 0.80017,-0.63013 2.02344,-0.0468 1.44193,0.68763 1.6428,1.35486 0.65498,2.22228 -1.86852,1.64081 -4.9717,0.6751 -7.83644,-2.43281 -2.03508,-2.2078 -2.60778,-3.96012 -1.81292,-5.49721 0.4091,-0.7911 0.88212,-1.16586 1.34507,-1.13452 z"
     id="path3089"
     inkscape:connector-curvature="0" /><rect
     style="fill:#9daccb;fill-opacity:0;stroke:none"
     id="rect4232"
     width="17.478609"
     height="16.995157"
     x="-619.62775"
     y="522.19092"
     inkscape:export-filename="/home/melki/www/private/buzz/img/icon/fb.png"
     inkscape:export-xdpi="298.65073"
     inkscape:export-ydpi="298.65073" /><path
     d="m -609.96439,527.70401 h -2.385 v -1.764 c 0,-0.662 0.389,-0.817 0.662,-0.817 0.273,0 1.684,0 1.684,0 v -2.913 l -2.318,-0.01 c -2.572,0 -3.158,2.172 -3.158,3.563 v 1.941 h -1.487 v 3.002 h 1.487 c 0,3.852 0,8.492 0,8.492 h 3.132 c 0,0 0,-4.686 0,-8.492 h 2.11 l 0.273,-3.002 z"
     id="path4220"
     inkscape:connector-curvature="0"
     style="fill:#ffffff;fill-opacity:1"
     inkscape:export-filename="/home/melki/www/private/buzz/img/icon/fb.png"
     inkscape:export-xdpi="298.65073"
     inkscape:export-ydpi="298.65073" /><rect
     y="554.46649"
     x="-628.43201"
     height="31.19994"
     width="45.933243"
     id="rect4234"
     style="fill:#00aced;fill-opacity:1;stroke:none"
     inkscape:export-filename="/home/melki/www/private/buzz/img/twit.png"
     inkscape:export-xdpi="293.90479"
     inkscape:export-ydpi="293.90479" /><path
     d="m -608.36939,567.24047 c -0.01,-0.004 -0.021,-0.018 -0.031,-0.027 -0.635,-0.573 -1.383,-0.848 -2.241,-0.814 l -0.026,-0.059 c 0.005,-0.006 0.012,-0.006 0.016,-0.006 0.779,-0.172 1.24,-0.35 1.377,-0.542 0.047,-0.155 -0.01,-0.241 -0.181,-0.263 -0.392,0.047 -0.752,0.129 -1.075,0.252 0.408,-0.252 0.567,-0.431 0.478,-0.521 -0.403,0.012 -0.837,0.21 -1.293,0.602 0.169,-0.278 0.233,-0.431 0.19,-0.457 -0.217,0.146 -0.408,0.303 -0.572,0.468 -0.344,0.37 -0.619,0.714 -0.832,1.024 l -0.01,0.026 c -0.545,0.854 -0.928,1.712 -1.156,2.587 l -0.084,0.064 -0.016,0.016 c -0.328,-0.396 -0.721,-0.729 -1.191,-0.999 -0.557,-0.349 -1.209,-0.681 -1.961,-1.002 -0.82,-0.408 -1.652,-0.746 -2.495,-1.009 -0.005,0.906 0.456,1.631 1.372,2.156 v 0.017 c -0.322,-0.006 -0.635,0.043 -0.938,0.135 0.059,0.843 0.678,1.422 1.854,1.742 l -0.006,0.017 c -0.459,-0.025 -0.842,0.131 -1.139,0.451 0.387,0.73 1.07,1.078 2.061,1.053 -0.195,0.097 -0.35,0.203 -0.449,0.321 -0.18,0.183 -0.239,0.397 -0.18,0.644 0.211,0.371 0.593,0.543 1.154,0.516 l 0,0 0.032,0.038 c -0.005,0.005 -0.011,0.011 -0.017,0.017 -0.969,0.965 -2.139,1.4 -3.512,1.309 l -0.021,0.012 c -0.837,-0.006 -1.731,-0.393 -2.701,-1.164 0.976,1.352 2.267,2.328 3.867,2.939 1.833,0.586 3.666,0.629 5.493,0.129 h 0.031 c 1.775,-0.493 3.279,-1.508 4.52,-3.043 0.572,-0.805 0.934,-1.57 1.076,-2.307 0.927,0.031 1.595,-0.226 2.007,-0.771 l -0.011,-0.018 c -0.307,0.106 -0.911,0.075 -1.807,-0.102 v -0.098 c 0,-0.004 0,-0.004 0.006,0 0.979,-0.106 1.558,-0.412 1.742,-0.918 -0.684,0.259 -1.355,0.264 -2.023,0.021 -0.121,-0.891 -0.554,-1.7 -1.308,-2.436 z"
     id="path4222"
     inkscape:connector-curvature="0"
     style="fill:#ffffff"
     inkscape:export-filename="/home/melki/www/private/buzz/img/icon/tw.png"
     inkscape:export-xdpi="307.16724"
     inkscape:export-ydpi="307.16724" /><rect
     style="fill:#30c139;fill-opacity:1;stroke:none"
     id="rect4236"
     width="45.933243"
     height="31.19994"
     x="-628.43201"
     y="593.89978"
     inkscape:export-filename="/home/melki/www/private/buzz/img/gplus.png"
     inkscape:export-xdpi="293.90479"
     inkscape:export-ydpi="293.90479" /><path
     d="m -614.75428,614.60775 2.74,-0.086 v 2.504 c 0,0.355 0.004,0.412 -0.551,0.602 -0.783,0.217 -1.666,0.26 -2.473,0.188 -2.736,-0.24 -4.824,-2.521 -5.318,-5.358 -0.469,-2.697 0.738,-5.248 2.779,-6.302 0.997,-0.514 2.192,-0.756 3.488,-0.317 0.813,0.272 1.55,0.768 2.193,1.449 l -0.448,0.856 0.842,-0.252 1.299,-1.396 c -2.204,-1.923 -5.985,-2.177 -8.491,-0.841 -2.18,1.16 -3.766,3.468 -3.843,6.041 -0.082,2.711 1.414,4.854 2.931,5.935 2.506,1.778 6.85,1.383 9.465,-0.008 v -3.101 l 0.609,-0.752 h -3.813 l -1.409,0.838 z m 8.221,-4.123 v -2.145 h -0.914 v 2.145 h -2.143 v 0.902 h 2.143 v 2.158 h 0.914 v -2.158 h 2.143 v -0.902 h -2.143 z"
     id="path4224"
     inkscape:connector-curvature="0"
     style="fill:#ffffff"
     inkscape:export-filename="/home/melki/www/private/buzz/img/icon/gp.png"
     inkscape:export-xdpi="287.59976"
     inkscape:export-ydpi="287.59976" /><rect
     y="636.99969"
     x="-628.43201"
     height="31.19994"
     width="45.933243"
     id="rect4238"
     style="fill:#cb2026;fill-opacity:1;stroke:none"
     inkscape:export-filename="/home/melki/www/private/buzz/img/pint.png"
     inkscape:export-xdpi="293.90479"
     inkscape:export-ydpi="293.90479" /><path
     d="m -613.46589,642.88187 c -5.246,0 -9.501,4.254 -9.501,9.5 0,3.891 2.34,7.232 5.688,8.702 -0.025,-0.663 -0.004,-1.459 0.166,-2.183 0.183,-0.771 1.223,-5.177 1.223,-5.177 0,0 -0.305,-0.606 -0.305,-1.503 0,-1.406 0.816,-2.459 1.834,-2.459 0.862,0 1.281,0.648 1.281,1.426 0,0.869 -0.556,2.168 -0.841,3.373 -0.237,1.008 0.506,1.828 1.5,1.828 1.802,0 3.013,-2.313 3.013,-5.051 0,-2.082 -1.402,-3.641 -3.953,-3.641 -2.881,0 -4.676,2.148 -4.676,4.55 0,0.827 0.242,1.411 0.625,1.862 0.176,0.207 0.2,0.291 0.137,0.529 -0.045,0.176 -0.15,0.596 -0.193,0.764 -0.063,0.239 -0.258,0.326 -0.477,0.236 -1.326,-0.541 -1.944,-1.994 -1.944,-3.629 0,-2.699 2.276,-5.936 6.79,-5.936 3.627,0 6.014,2.625 6.014,5.442 0,3.728 -2.07,6.511 -5.125,6.511 -1.025,0 -1.99,-0.555 -2.322,-1.185 0,0 -0.551,2.188 -0.668,2.612 -0.201,0.732 -0.596,1.464 -0.955,2.035 0.854,0.252 1.756,0.389 2.691,0.389 5.246,0 9.5,-4.253 9.5,-9.501 -0.002,-5.24 -4.256,-9.494 -9.502,-9.494 z"
     id="path4226"
     inkscape:connector-curvature="0"
     style="fill:#ffffff"
     inkscape:export-filename="/home/melki/www/private/buzz/img/icon/pint.png"
     inkscape:export-xdpi="274.69345"
     inkscape:export-ydpi="274.69345" /><rect
     style="fill:#eb4924;fill-opacity:1;stroke:none"
     id="rect4240"
     width="45.933243"
     height="31.19994"
     x="-628.43201"
     y="676.16626"
     inkscape:export-filename="/home/melki/www/private/buzz/img/st.png"
     inkscape:export-xdpi="293.90479"
     inkscape:export-ydpi="293.90479" /><path
     id="path4228"
     d="m -612.54789,691.27848 1.185,0.551 1.766,-0.526 v -1.225 c -0.063,-2.086 -1.767,-3.758 -3.867,-3.758 -2.093,0 -3.793,1.66 -3.868,3.734 v 5.598 c 0,0.506 -0.411,0.917 -0.917,0.917 -0.506,0 -0.917,-0.411 -0.917,-0.917 v -2.373 h -2.967 c 0,0 0,2.376 0,2.404 0,2.141 1.735,3.875 3.875,3.875 2.122,0 3.841,-1.705 3.871,-3.819 l 0.004,-5.528 c 0,-0.507 0.411,-0.918 0.917,-0.918 0.506,0 0.917,0.411 0.917,0.918 v 1.067 z m 4.785,2.001 v 2.483 c 0,0.507 -0.411,0.917 -0.917,0.917 -0.507,0 -0.917,-0.41 -0.917,-0.917 v -2.436 l -1.766,0.527 -1.185,-0.553 v 2.416 c 0.019,2.125 1.747,3.841 3.875,3.841 2.14,0 3.875,-1.734 3.875,-3.875 0,-0.028 0,-2.404 0,-2.404 h -2.965 z"
     inkscape:connector-curvature="0"
     style="fill:#ffffff"
     inkscape:export-filename="/home/melki/www/private/buzz/img/icon/st.png"
     inkscape:export-xdpi="301.12491"
     inkscape:export-ydpi="301.12491" /><rect
     y="717.33289"
     x="-628.43201"
     height="31.19994"
     width="45.933243"
     id="rect4242"
     style="fill:#58cb3f;fill-opacity:0.99914796;stroke:none"
     inkscape:export-filename="/home/melki/www/private/buzz/img/wa.png"
     inkscape:export-xdpi="293.90479"
     inkscape:export-ydpi="293.90479" /><path
     inkscape:connector-curvature="0"
     id="path4230"
     d="m -612.72835,722.6648 c -3.34564,-0.27678 -6.70614,1.41207 -8.58501,4.60831 -1.35902,2.31191 -1.43831,5.81932 -0.18714,8.19902 0.76539,1.45577 0.782,1.66697 0.28071,3.08778 -0.29596,0.83883 -0.47729,1.52054 -0.40937,1.52054 0.0679,0 0.84102,-0.25155 1.71934,-0.56142 0.94136,-0.3321 1.76708,-0.42615 2.01175,-0.23392 0.22828,0.17928 0.92633,0.50703 1.5439,0.73684 1.87388,0.69732 5.52868,0.28411 7.45047,-0.84213 6.04822,-3.5445 5.74675,-12.31477 -0.53802,-15.55592 -1.05851,-0.5459 -2.17143,-0.86683 -3.28663,-0.9591 z m -4.16385,3.95331 c 0.46294,0.0313 0.9111,0.46735 1.26319,1.30998 0.4318,1.0335 0.46059,1.52883 0.12865,2.25737 -0.37809,0.8298 -0.28913,1.07884 0.83043,2.23396 1.59938,1.65013 2.47279,1.93011 3.4036,1.08774 0.68589,-0.62074 0.80017,-0.63013 2.02344,-0.0468 1.44193,0.68763 1.6428,1.35486 0.65498,2.22228 -1.86852,1.64081 -4.9717,0.6751 -7.83644,-2.43281 -2.03508,-2.2078 -2.60778,-3.96012 -1.81292,-5.49721 0.4091,-0.7911 0.88212,-1.16586 1.34507,-1.13452 z"
     style="fill:#ffffff"
     inkscape:export-xdpi="293"
     inkscape:export-ydpi="293"
     inkscape:export-filename="/home/melki/www/private/buzz/img/icon/wa.png" /><path
     style="fill:#008080;fill-opacity:1"
     inkscape:connector-curvature="0"
     id="path4376"
     d="m -369.26232,433.5 c 9.111,0 16.5,7.387 16.5,16.5 0,9.111 -7.389,16.5 -16.5,16.5 -9.113,0 -16.5,-7.389 -16.5,-16.5 0,-9.113 7.387,-16.5 16.5,-16.5 z" /><path
     style="fill:#008080;fill-opacity:1;stroke:#ffffff;stroke-width:1.25757264999999996"
     inkscape:connector-curvature="0"
     d="m -377.85574,443.71213 h 17.18683 v 12.57573 h -17.18683 z m 0,0 7.75504,7.75503 q 0.83838,0.6288 1.67676,0 l 7.75503,-7.75503 m -17.18683,12.57573 6.28787,-6.28786 m 4.6111,0 6.28786,6.28786"
     id="path6" /><rect
     inkscape:export-ydpi="279.13174"
     inkscape:export-xdpi="279.13174"
     inkscape:export-filename="/home/melki/www/private/buzz/img/icon/mail.png"
     style="fill:#068383;fill-opacity:0;stroke:none"
     id="rect4380"
     width="18.700846"
     height="16.797626"
     x="-627.78088"
     y="763.26611" /><path
     id="path4378"
     d="m -627.12259,766.52722 h 17.18683 v 12.57573 h -17.18683 z m 0,0 7.75504,7.75503 q 0.83838,0.6288 1.67676,0 l 7.75503,-7.75503 m -17.18683,12.57573 6.28787,-6.28786 m 4.6111,0 6.28786,6.28786"
     inkscape:connector-curvature="0"
     style="fill:none;stroke:#ffffff;stroke-width:1.25757265"
     inkscape:transform-center-y="33.366601"
     inkscape:export-filename="/home/melki/www/private/buzz/img/icon/mail.png"
     inkscape:export-xdpi="282.63959"
     inkscape:export-ydpi="282.63959" /><rect
     style="fill:#cccccc;fill-opacity:1;stroke:none"
     id="rect3855"
     width="53.315746"
     height="40.752842"
     x="-521.91589"
     y="674.97327" /><g
     id="g3863"
     inkscape:export-filename="/home/melki/www/private/buzz/img/icon/close.png"
     inkscape:export-xdpi="331.19769"
     inkscape:export-ydpi="331.19769"><rect
       transform="matrix(0.71248014,0.70169227,-0.70169227,0.71248014,0,0)"
       ry="1.73333"
       y="833.99579"
       x="137.66873"
       height="17.224968"
       width="4.116663"
       id="rect3857"
       style="fill:#ffffff;fill-opacity:1;stroke:none" /><rect
       style="fill:#ffffff;fill-opacity:1;stroke:none"
       id="rect3861"
       width="4.116663"
       height="17.224968"
       x="838.32019"
       y="143.95308"
       ry="1.73333"
       transform="matrix(-0.71248014,0.70169227,0.70169227,0.71248014,0,0)" /></g></svg>